<?xml version="1.0" encoding="UTF-8" standalone="no"?>
<!-- Created with Inkscape (http://www.inkscape.org/) -->

<svg
   xmlns:dc="http://purl.org/dc/elements/1.1/"
   xmlns:cc="http://creativecommons.org/ns#"
   xmlns:rdf="http://www.w3.org/1999/02/22-rdf-syntax-ns#"
   xmlns:svg="http://www.w3.org/2000/svg"
   xmlns="http://www.w3.org/2000/svg"
   xmlns:sodipodi="http://sodipodi.sourceforge.net/DTD/sodipodi-0.dtd"
   xmlns:inkscape="http://www.inkscape.org/namespaces/inkscape"
   width="50"
   height="50"
   id="svg2"
   version="1.1"
   inkscape:version="0.48.4 r9939"
   sodipodi:docname="schneemanngelb.svg">
  <defs
     id="defs4" />
  <sodipodi:namedview
     id="base"
     pagecolor="#ffffff"
     bordercolor="#666666"
     borderopacity="1.0"
     inkscape:pageopacity="0.0"
     inkscape:pageshadow="2"
     inkscape:zoom="8"
     inkscape:cx="10.091961"
     inkscape:cy="19.051639"
     inkscape:document-units="px"
     inkscape:current-layer="layer1"
     showgrid="false"
     inkscape:window-width="1920"
     inkscape:window-height="1017"
     inkscape:window-x="-8"
     inkscape:window-y="-8"
     inkscape:window-maximized="1" />
  <metadata
     id="metadata7">
    <rdf:RDF>
      <cc:Work
         rdf:about="">
        <dc:format>image/svg+xml</dc:format>
        <dc:type
           rdf:resource="http://purl.org/dc/dcmitype/StillImage" />
        <dc:title />
      </cc:Work>
    </rdf:RDF>
  </metadata>
  <g
     inkscape:label="Ebene 1"
     inkscape:groupmode="layer"
     id="layer1"
     transform="translate(0,-1002.3622)">
    <path
       sodipodi:type="arc"
       style="fill:#ffff00;fill-opacity:1;fill-rule:nonzero;stroke:#000000;stroke-width:2;stroke-linecap:round;stroke-linejoin:round;stroke-miterlimit:4;stroke-opacity:1;stroke-dasharray:none;stroke-dashoffset:0"
       id="path2983"
       sodipodi:cx="19.759037"
       sodipodi:cy="26.746988"
       sodipodi:rx="10"
       sodipodi:ry="9.3975906"
       d="m 29.759037,26.746988 c 0,5.190146 -4.477152,9.397591 -10,9.397591 -5.522847,0 -10,-4.207445 -10,-9.397591 0,-5.190146 4.477153,-9.39759 10,-9.39759 5.522848,0 10,4.207444 10,9.39759 z"
       transform="matrix(1.0424642,0,0,1.1092888,4.4019108,1004.6921)" />
    <path
       sodipodi:type="arc"
       style="fill:#ffff00;fill-opacity:1;fill-rule:nonzero;stroke:#000000;stroke-width:2;stroke-linecap:round;stroke-linejoin:round;stroke-miterlimit:4;stroke-opacity:1;stroke-dasharray:none;stroke-dashoffset:0"
       id="path2986"
       sodipodi:cx="25.060242"
       sodipodi:cy="15.722892"
       sodipodi:rx="6.3855424"
       sodipodi:ry="5.9638553"
       d="m 31.445784,15.722892 c 0,3.293746 -2.858905,5.963855 -6.385542,5.963855 -3.526638,0 -6.385543,-2.670109 -6.385543,-5.963855 0,-3.293747 2.858905,-5.9638555 6.385543,-5.9638555 3.526637,0 6.385542,2.6701085 6.385542,5.9638555 z"
       transform="matrix(0.94335908,0,0,1.0100613,1.3591935,1001.9811)" />
    <path
       sodipodi:type="arc"
       style="fill:#000000;fill-opacity:1;fill-rule:nonzero;stroke:#000000;stroke-width:2;stroke-linecap:round;stroke-linejoin:round;stroke-miterlimit:4;stroke-opacity:1;stroke-dasharray:none;stroke-dashoffset:0"
       id="path2988"
       sodipodi:cx="24.638554"
       sodipodi:cy="28.855421"
       sodipodi:rx="0.66265059"
       sodipodi:ry="0.54216868"
       d="m 25.301204,28.855421 c 0,0.299432 -0.296679,0.542169 -0.66265,0.542169 -0.365972,0 -0.662651,-0.242737 -0.662651,-0.542169 0,-0.299431 0.296679,-0.542169 0.662651,-0.542169 0.365971,0 0.66265,0.242738 0.66265,0.542169 z"
       transform="matrix(0.84832409,0,0,1.0368405,4.0985214,1001.3413)" />
    <path
       sodipodi:type="arc"
       style="fill:#000000;fill-opacity:1;fill-rule:nonzero;stroke:#000000;stroke-width:2;stroke-linecap:round;stroke-linejoin:round;stroke-miterlimit:4;stroke-opacity:1;stroke-dasharray:none;stroke-dashoffset:0"
       id="path2988-1"
       sodipodi:cx="24.638554"
       sodipodi:cy="28.855421"
       sodipodi:rx="0.66265059"
       sodipodi:ry="0.54216868"
       d="m 25.301204,28.855421 c 0,0.299432 -0.296679,0.542169 -0.66265,0.542169 -0.365972,0 -0.662651,-0.242737 -0.662651,-0.542169 0,-0.299431 0.296679,-0.542169 0.662651,-0.542169 0.365971,0 0.66265,0.242738 0.66265,0.542169 z"
       transform="matrix(0.84832409,0,0,1.0368405,4.0985214,1006.5338)" />
    <rect
       style="fill:#000000;fill-opacity:1;fill-rule:nonzero;stroke:#000000;stroke-width:2.07602406;stroke-linecap:round;stroke-linejoin:miter;stroke-miterlimit:4;stroke-opacity:1;stroke-dasharray:none;stroke-dashoffset:0"
       id="rect3778"
       width="9.9239759"
       height="5.9239759"
       x="20.038012"
       y="1005.5648"
       ry="2.961988"
       rx="0" />
    <rect
       style="fill:#000000;fill-opacity:1;fill-rule:nonzero;stroke:#000000;stroke-width:2.00275779;stroke-linecap:round;stroke-linejoin:miter;stroke-miterlimit:4;stroke-opacity:1;stroke-dasharray:none;stroke-dashoffset:0"
       id="rect3780"
       width="15.997242"
       height="0.55974215"
       x="17.001379"
       y="1012.6761"
       ry="0.27987108" />
  </g>
</svg>
